<?xml version="1.0" standalone="no"?>
<!DOCTYPE svg PUBLIC "-//W3C//DTD SVG 20010904//EN"
 "http://www.w3.org/TR/2001/REC-SVG-20010904/DTD/svg10.dtd">
<svg version="1.0" xmlns="http://www.w3.org/2000/svg"
 width="503.000000pt" height="496.000000pt" viewBox="0 0 503.000000 496.000000"
 preserveAspectRatio="xMidYMid meet">

<g transform="translate(0.000000,496.000000) scale(0.100000,-0.100000)"
fill="#000000" stroke="none">
<path d="M2255 4924 c-304 -30 -659 -139 -920 -282 -444 -245 -802 -616 -1027
-1067 -51 -100 -116 -254 -129 -300 -4 -16 -21 -76 -38 -132 -16 -56 -42 -173
-58 -260 -26 -146 -28 -177 -27 -403 1 -219 4 -261 28 -395 95 -537 336 -994
718 -1360 186 -178 353 -298 581 -415 257 -132 446 -195 757 -251 104 -19 616
-19 720 0 243 44 420 96 610 179 790 346 1353 1095 1456 1937 21 170 21 461 0
626 -117 911 -745 1685 -1621 1997 -113 40 -272 81 -418 108 -79 15 -534 28
-632 18z m1510 -1533 c3 -6 -4 -34 -15 -63 -24 -64 -24 -58 -2 -58 9 0 31 -9
49 -19 39 -25 49 -64 29 -122 -17 -48 -14 -58 9 -39 28 23 54 97 48 135 -4 26
-1 41 12 55 31 34 85 21 85 -21 0 -10 12 -21 29 -27 16 -6 37 -22 47 -37 17
-26 17 -30 -3 -96 -15 -53 -17 -69 -7 -69 17 0 23 10 64 120 34 89 38 95 74
109 29 11 45 12 67 4 17 -7 31 -7 35 -2 10 17 53 9 64 -11 8 -15 2 -42 -24
-120 l-35 -100 24 0 c29 0 30 1 70 116 18 52 38 101 44 108 14 17 126 15 158
-2 43 -24 41 -66 -13 -205 -6 -15 -3 -18 16 -15 16 2 33 18 49 47 33 56 55 71
76 50 31 -30 -26 -133 -91 -164 -66 -31 -134 2 -134 64 0 14 10 55 22 93 40
124 -12 94 -61 -36 -17 -45 -31 -87 -31 -92 0 -38 -117 -58 -169 -30 -20 11
-29 11 -54 -2 -25 -12 -36 -13 -64 -3 -27 10 -41 10 -64 1 -35 -15 -72 -7 -99
22 -24 26 -26 62 -4 113 16 38 13 65 -6 65 -6 0 -13 -8 -17 -17 -29 -89 -73
-133 -133 -133 -12 0 -35 -11 -51 -25 -40 -33 -87 -40 -132 -21 -32 13 -40 13
-64 1 -36 -19 -61 -19 -97 0 -25 13 -33 13 -73 0 -57 -20 -89 -19 -140 4 -48
22 -63 45 -63 95 0 47 34 135 64 167 32 34 84 44 130 25 67 -28 74 -111 14
-161 -28 -23 -39 -27 -81 -22 -44 4 -48 3 -45 -17 6 -40 98 -38 143 4 12 11
32 50 44 88 46 135 85 237 94 250 14 18 57 15 64 -5 8 -19 0 -48 -61 -218 -25
-71 -46 -133 -46 -137 0 -13 37 -9 47 5 6 6 22 48 38 92 94 272 106 296 145
275 11 -6 21 -14 25 -19z m-2565 -37 c117 -63 167 -195 130 -336 -14 -51 -80
-123 -139 -151 -64 -31 -178 -31 -241 0 -94 45 -150 137 -150 244 0 128 75
229 200 270 49 16 144 3 200 -27z m803 -34 c68 -26 148 -98 176 -160 24 -52
28 -151 8 -189 -16 -33 -69 -63 -111 -63 -59 0 -95 27 -127 96 -38 80 -57 98
-117 104 -90 8 -160 -45 -181 -138 -25 -113 32 -187 158 -205 62 -8 96 -29
115 -70 39 -81 9 -183 -64 -224 -52 -29 -118 -27 -191 5 -55 25 -63 26 -115
16 -119 -24 -187 -106 -188 -226 -1 -102 55 -172 156 -196 146 -33 363 26 476
131 34 30 42 45 42 72 0 19 7 54 16 78 32 88 186 535 203 589 64 199 188 337
352 391 53 17 81 20 169 16 128 -5 192 -30 266 -104 73 -73 89 -111 89 -214 0
-101 -13 -132 -67 -160 -100 -51 -218 13 -218 119 0 17 -10 40 -25 56 -34 37
-93 36 -161 -3 -83 -48 -95 -72 -218 -418 -20 -57 -52 -147 -71 -200 -19 -54
-42 -126 -50 -160 -15 -59 -15 -65 4 -107 24 -54 49 -69 119 -68 113 1 212 85
247 208 22 81 91 268 125 338 46 98 98 116 194 71 65 -31 70 -104 16 -245 -56
-148 -114 -296 -146 -375 -17 -44 -31 -81 -29 -83 6 -6 61 27 117 72 67 54
134 145 174 240 37 88 79 126 137 126 34 0 49 -6 69 -27 40 -44 41 -63 9 -157
-84 -243 -273 -420 -558 -521 l-52 -19 -37 -105 c-82 -231 -134 -304 -262
-367 -75 -38 -79 -39 -187 -39 -128 0 -174 16 -249 85 -88 82 -110 214 -53
326 43 85 128 140 282 184 44 13 83 26 88 30 4 3 -16 12 -45 19 -73 19 -102
35 -156 88 -38 36 -50 43 -62 34 -45 -34 -205 -102 -270 -116 -260 -55 -486
-7 -623 132 -77 78 -102 145 -102 273 1 200 95 360 256 435 30 14 62 25 71 25
16 0 15 4 -5 37 -65 112 -43 300 50 413 137 167 355 225 556 150z m2007 -386
c14 -16 0 -73 -60 -234 -37 -100 -45 -140 -29 -140 18 0 59 41 59 58 0 29 36
114 60 144 20 23 36 31 72 35 56 7 89 -10 108 -56 16 -40 6 -76 -31 -114 -27
-27 -35 -29 -79 -25 -43 4 -50 3 -50 -12 0 -21 19 -30 61 -30 44 0 82 24 112
69 30 45 30 45 59 30 15 -8 18 -17 13 -37 -11 -43 -54 -93 -99 -113 -50 -23
-136 -25 -176 -4 -27 14 -33 14 -61 -1 -22 -11 -44 -14 -73 -10 -50 7 -59 7
-118 0 -39 -5 -49 -3 -69 17 -27 27 -82 28 -111 2 -26 -23 -100 -28 -137 -10
-28 14 -36 14 -66 1 -84 -35 -189 -4 -206 60 -16 58 21 168 70 209 45 38 93
37 133 -3 25 -26 29 -36 24 -62 -9 -43 -25 -60 -55 -56 -22 3 -26 8 -27 37 0
52 -19 48 -43 -10 -34 -84 -25 -119 31 -119 50 0 83 25 103 77 50 133 78 163
153 163 30 0 47 -7 71 -29 37 -35 40 -69 11 -126 -22 -44 -20 -53 12 -38 16 7
32 34 51 87 38 101 70 121 156 95 9 -3 21 18 37 66 31 89 64 117 94 79z m437
-120 c15 -24 15 -29 2 -53 -27 -48 -109 -32 -109 22 0 56 76 77 107 31z m-6
-155 c16 -16 20 -28 15 -52 -8 -38 -51 -106 -72 -114 -28 -10 -36 12 -17 45
18 31 18 32 -4 47 -43 30 -20 95 33 95 13 0 33 -9 45 -21z m-3564 -45 c139
-68 190 -224 122 -372 -69 -149 -211 -280 -394 -367 -148 -70 -196 -89 -237
-93 -40 -4 -50 -1 -72 21 -30 30 -35 80 -12 113 8 11 34 29 58 40 77 34 146
88 216 168 l33 37 -40 45 c-42 48 -71 117 -71 170 0 44 36 137 66 174 53 62
154 104 234 95 25 -3 69 -17 97 -31z"/>
<path d="M3317 3182 c-21 -23 -21 -28 -2 -36 8 -3 21 2 29 10 15 14 12 44 -4
44 -4 0 -14 -8 -23 -18z"/>
<path d="M3708 3183 c-14 -17 -58 -125 -58 -144 0 -10 43 -12 53 -3 3 4 2 15
-4 26 -15 28 -4 63 26 76 17 8 25 20 25 37 0 29 -20 33 -42 8z"/>
<path d="M4191 3125 c-26 -80 -27 -98 -4 -93 20 4 67 122 59 145 -12 31 -34
10 -55 -52z"/>
<path d="M2331 1607 c-64 -25 -131 -84 -131 -116 0 -43 18 -61 61 -61 59 0
113 54 138 138 22 73 20 74 -68 39z"/>
<path d="M3545 2721 c-16 -27 -55 -144 -50 -152 7 -10 38 -12 48 -3 3 3 1 17
-5 30 -9 18 -7 29 6 49 9 14 23 25 30 25 14 0 29 38 20 52 -7 11 -41 10 -49
-1z"/>
<path d="M3822 2717 c-17 -21 -42 -88 -42 -113 0 -15 6 -24 16 -24 26 0 69
130 46 144 -5 3 -14 0 -20 -7z"/>
<path d="M4099 2709 c-13 -25 0 -43 24 -33 21 8 23 54 2 54 -8 0 -19 -9 -26
-21z"/>
</g>
</svg>
